<mxfile host="app.diagrams.net" modified="2022-05-20T06:32:38.118Z" agent="5.0 (Windows NT 10.0; Win64; x64) AppleWebKit/537.36 (KHTML, like Gecko) Chrome/101.0.4951.67 Safari/537.36" etag="o68o6hti-JH_9dOZmYCA" version="18.0.7" type="github" pages="3">
  <diagram id="QEX9iIno-s5-Z2uuihBx" name="Page-1">
    <mxGraphModel dx="1943" dy="601" grid="1" gridSize="10" guides="1" tooltips="1" connect="1" arrows="1" fold="1" page="1" pageScale="1" pageWidth="850" pageHeight="1100" math="0" shadow="0">
      <root>
        <mxCell id="0" />
        <mxCell id="1" parent="0" />
        <mxCell id="yXDRV5I_VkIoSgksBWT7-1" value="&lt;b&gt;Withdraw Case&lt;/b&gt;&amp;nbsp;" style="ellipse;whiteSpace=wrap;html=1;" vertex="1" parent="1">
          <mxGeometry x="380" y="230" width="120" height="60" as="geometry" />
        </mxCell>
        <mxCell id="yXDRV5I_VkIoSgksBWT7-2" value="&lt;b&gt;Transfer Funds&lt;/b&gt;" style="ellipse;whiteSpace=wrap;html=1;" vertex="1" parent="1">
          <mxGeometry x="385" y="320" width="115" height="60" as="geometry" />
        </mxCell>
        <mxCell id="yXDRV5I_VkIoSgksBWT7-3" value="&lt;b&gt;Repair&lt;/b&gt;" style="ellipse;whiteSpace=wrap;html=1;" vertex="1" parent="1">
          <mxGeometry x="390" y="490" width="120" height="60" as="geometry" />
        </mxCell>
        <mxCell id="yXDRV5I_VkIoSgksBWT7-4" value="&lt;b&gt;Maintenance&lt;/b&gt;" style="ellipse;whiteSpace=wrap;html=1;" vertex="1" parent="1">
          <mxGeometry x="390" y="410" width="120" height="60" as="geometry" />
        </mxCell>
        <mxCell id="yXDRV5I_VkIoSgksBWT7-5" value="&lt;b&gt;Deposite Funds&lt;/b&gt;" style="ellipse;whiteSpace=wrap;html=1;" vertex="1" parent="1">
          <mxGeometry x="380" y="140" width="120" height="60" as="geometry" />
        </mxCell>
        <mxCell id="yXDRV5I_VkIoSgksBWT7-6" value="&lt;b&gt;Check&lt;br&gt;Balances&lt;br&gt;&lt;/b&gt;" style="ellipse;whiteSpace=wrap;html=1;" vertex="1" parent="1">
          <mxGeometry x="380" y="40" width="120" height="60" as="geometry" />
        </mxCell>
        <mxCell id="yXDRV5I_VkIoSgksBWT7-10" value="" style="endArrow=none;html=1;rounded=0;" edge="1" parent="1">
          <mxGeometry width="50" height="50" relative="1" as="geometry">
            <mxPoint x="280" y="20" as="sourcePoint" />
            <mxPoint x="600" y="20" as="targetPoint" />
          </mxGeometry>
        </mxCell>
        <mxCell id="yXDRV5I_VkIoSgksBWT7-11" value="" style="endArrow=none;html=1;rounded=0;" edge="1" parent="1">
          <mxGeometry width="50" height="50" relative="1" as="geometry">
            <mxPoint x="280" y="20" as="sourcePoint" />
            <mxPoint x="280" y="560" as="targetPoint" />
          </mxGeometry>
        </mxCell>
        <mxCell id="yXDRV5I_VkIoSgksBWT7-12" value="" style="endArrow=none;html=1;rounded=0;" edge="1" parent="1">
          <mxGeometry width="50" height="50" relative="1" as="geometry">
            <mxPoint x="600" y="560" as="sourcePoint" />
            <mxPoint x="600" y="20" as="targetPoint" />
          </mxGeometry>
        </mxCell>
        <mxCell id="yXDRV5I_VkIoSgksBWT7-13" value="" style="endArrow=none;html=1;rounded=0;" edge="1" parent="1">
          <mxGeometry width="50" height="50" relative="1" as="geometry">
            <mxPoint x="280" y="560" as="sourcePoint" />
            <mxPoint x="600" y="560" as="targetPoint" />
          </mxGeometry>
        </mxCell>
        <mxCell id="yXDRV5I_VkIoSgksBWT7-15" value="Actor" style="shape=umlActor;verticalLabelPosition=bottom;verticalAlign=top;html=1;" vertex="1" parent="1">
          <mxGeometry x="85" y="420" width="30" height="60" as="geometry" />
        </mxCell>
        <mxCell id="yXDRV5I_VkIoSgksBWT7-18" value="Actor" style="shape=umlActor;verticalLabelPosition=bottom;verticalAlign=top;html=1;" vertex="1" parent="1">
          <mxGeometry x="100" y="200" width="30" height="60" as="geometry" />
        </mxCell>
        <mxCell id="yXDRV5I_VkIoSgksBWT7-21" value="&lt;b&gt;&amp;nbsp; &amp;nbsp; &amp;nbsp; &amp;nbsp; &amp;nbsp; Customer&lt;/b&gt;" style="text;html=1;align=center;verticalAlign=middle;resizable=0;points=[];autosize=1;strokeColor=none;fillColor=none;" vertex="1" parent="1">
          <mxGeometry x="50" y="290" width="100" height="20" as="geometry" />
        </mxCell>
        <mxCell id="yXDRV5I_VkIoSgksBWT7-24" value="&lt;b&gt;ATM Technician&lt;/b&gt;" style="text;html=1;align=center;verticalAlign=middle;resizable=0;points=[];autosize=1;strokeColor=none;fillColor=none;" vertex="1" parent="1">
          <mxGeometry x="50" y="500" width="110" height="20" as="geometry" />
        </mxCell>
        <mxCell id="yXDRV5I_VkIoSgksBWT7-25" value="" style="endArrow=none;html=1;rounded=0;entryX=0;entryY=0.5;entryDx=0;entryDy=0;" edge="1" parent="1" target="yXDRV5I_VkIoSgksBWT7-6">
          <mxGeometry width="50" height="50" relative="1" as="geometry">
            <mxPoint x="140" y="230" as="sourcePoint" />
            <mxPoint x="450" y="270" as="targetPoint" />
          </mxGeometry>
        </mxCell>
        <mxCell id="yXDRV5I_VkIoSgksBWT7-26" value="" style="endArrow=none;html=1;rounded=0;entryX=0;entryY=0.5;entryDx=0;entryDy=0;" edge="1" parent="1" target="yXDRV5I_VkIoSgksBWT7-5">
          <mxGeometry width="50" height="50" relative="1" as="geometry">
            <mxPoint x="140" y="230" as="sourcePoint" />
            <mxPoint x="450" y="270" as="targetPoint" />
          </mxGeometry>
        </mxCell>
        <mxCell id="yXDRV5I_VkIoSgksBWT7-27" value="" style="endArrow=none;html=1;rounded=0;entryX=0;entryY=0.5;entryDx=0;entryDy=0;" edge="1" parent="1" target="yXDRV5I_VkIoSgksBWT7-1">
          <mxGeometry width="50" height="50" relative="1" as="geometry">
            <mxPoint x="140" y="230" as="sourcePoint" />
            <mxPoint x="450" y="270" as="targetPoint" />
          </mxGeometry>
        </mxCell>
        <mxCell id="yXDRV5I_VkIoSgksBWT7-28" value="" style="endArrow=none;html=1;rounded=0;entryX=0;entryY=0.5;entryDx=0;entryDy=0;" edge="1" parent="1" target="yXDRV5I_VkIoSgksBWT7-2">
          <mxGeometry width="50" height="50" relative="1" as="geometry">
            <mxPoint x="140" y="230" as="sourcePoint" />
            <mxPoint x="450" y="270" as="targetPoint" />
          </mxGeometry>
        </mxCell>
        <mxCell id="yXDRV5I_VkIoSgksBWT7-29" value="" style="endArrow=none;html=1;rounded=0;entryX=0.02;entryY=0.337;entryDx=0;entryDy=0;entryPerimeter=0;" edge="1" parent="1" target="yXDRV5I_VkIoSgksBWT7-4">
          <mxGeometry width="50" height="50" relative="1" as="geometry">
            <mxPoint x="120" y="450" as="sourcePoint" />
            <mxPoint x="450" y="270" as="targetPoint" />
          </mxGeometry>
        </mxCell>
        <mxCell id="yXDRV5I_VkIoSgksBWT7-30" value="" style="endArrow=none;html=1;rounded=0;" edge="1" parent="1" target="yXDRV5I_VkIoSgksBWT7-3">
          <mxGeometry width="50" height="50" relative="1" as="geometry">
            <mxPoint x="120" y="450" as="sourcePoint" />
            <mxPoint x="450" y="270" as="targetPoint" />
          </mxGeometry>
        </mxCell>
        <mxCell id="yXDRV5I_VkIoSgksBWT7-31" value="" style="shape=mxgraph.signs.travel.bank;html=1;pointerEvents=1;fillColor=#000000;strokeColor=none;verticalLabelPosition=bottom;verticalAlign=top;align=center;" vertex="1" parent="1">
          <mxGeometry x="700" y="260" width="99" height="86" as="geometry" />
        </mxCell>
        <mxCell id="yXDRV5I_VkIoSgksBWT7-32" value="&lt;b&gt;Bank&lt;/b&gt;" style="text;html=1;align=center;verticalAlign=middle;resizable=0;points=[];autosize=1;strokeColor=none;fillColor=none;" vertex="1" parent="1">
          <mxGeometry x="730" y="360" width="40" height="20" as="geometry" />
        </mxCell>
        <mxCell id="yXDRV5I_VkIoSgksBWT7-33" value="" style="endArrow=none;html=1;rounded=0;entryX=1;entryY=0.5;entryDx=0;entryDy=0;" edge="1" parent="1" target="yXDRV5I_VkIoSgksBWT7-6">
          <mxGeometry width="50" height="50" relative="1" as="geometry">
            <mxPoint x="690" y="300" as="sourcePoint" />
            <mxPoint x="450" y="270" as="targetPoint" />
          </mxGeometry>
        </mxCell>
        <mxCell id="yXDRV5I_VkIoSgksBWT7-34" value="" style="endArrow=none;html=1;rounded=0;entryX=1;entryY=0.5;entryDx=0;entryDy=0;" edge="1" parent="1" target="yXDRV5I_VkIoSgksBWT7-5">
          <mxGeometry width="50" height="50" relative="1" as="geometry">
            <mxPoint x="690" y="300" as="sourcePoint" />
            <mxPoint x="450" y="270" as="targetPoint" />
          </mxGeometry>
        </mxCell>
        <mxCell id="yXDRV5I_VkIoSgksBWT7-35" value="" style="endArrow=none;html=1;rounded=0;" edge="1" parent="1" source="yXDRV5I_VkIoSgksBWT7-1">
          <mxGeometry width="50" height="50" relative="1" as="geometry">
            <mxPoint x="400" y="320" as="sourcePoint" />
            <mxPoint x="690" y="300" as="targetPoint" />
          </mxGeometry>
        </mxCell>
        <mxCell id="yXDRV5I_VkIoSgksBWT7-36" value="" style="endArrow=none;html=1;rounded=0;exitX=1;exitY=0.5;exitDx=0;exitDy=0;" edge="1" parent="1" source="yXDRV5I_VkIoSgksBWT7-2">
          <mxGeometry width="50" height="50" relative="1" as="geometry">
            <mxPoint x="400" y="320" as="sourcePoint" />
            <mxPoint x="690" y="300" as="targetPoint" />
          </mxGeometry>
        </mxCell>
        <mxCell id="yXDRV5I_VkIoSgksBWT7-37" value="" style="endArrow=none;html=1;rounded=0;exitX=1;exitY=0.5;exitDx=0;exitDy=0;" edge="1" parent="1" source="yXDRV5I_VkIoSgksBWT7-4">
          <mxGeometry width="50" height="50" relative="1" as="geometry">
            <mxPoint x="400" y="320" as="sourcePoint" />
            <mxPoint x="690" y="300" as="targetPoint" />
          </mxGeometry>
        </mxCell>
        <mxCell id="yXDRV5I_VkIoSgksBWT7-38" value="" style="endArrow=none;html=1;rounded=0;exitX=1;exitY=0.5;exitDx=0;exitDy=0;" edge="1" parent="1" source="yXDRV5I_VkIoSgksBWT7-3">
          <mxGeometry width="50" height="50" relative="1" as="geometry">
            <mxPoint x="400" y="320" as="sourcePoint" />
            <mxPoint x="690" y="300" as="targetPoint" />
          </mxGeometry>
        </mxCell>
        <mxCell id="yXDRV5I_VkIoSgksBWT7-39" value="&amp;nbsp; &amp;nbsp; &amp;nbsp; &amp;lt;&amp;lt;subsystem&amp;gt;&amp;gt;" style="text;html=1;align=center;verticalAlign=middle;resizable=0;points=[];autosize=1;strokeColor=none;fillColor=none;" vertex="1" parent="1">
          <mxGeometry x="260" y="30" width="120" height="20" as="geometry" />
        </mxCell>
        <mxCell id="yXDRV5I_VkIoSgksBWT7-40" value="&lt;b&gt;Bank&lt;/b&gt; &lt;b&gt;ATM&lt;/b&gt;" style="text;html=1;align=center;verticalAlign=middle;resizable=0;points=[];autosize=1;strokeColor=none;fillColor=none;" vertex="1" parent="1">
          <mxGeometry x="85" y="20" width="70" height="20" as="geometry" />
        </mxCell>
        <mxCell id="Uu7hmosLE1ZRWA9IbxIR-1" value="&amp;nbsp; &amp;nbsp; &amp;nbsp; &amp;nbsp; &amp;nbsp; &amp;nbsp; &amp;nbsp; &amp;nbsp; &amp;nbsp; &amp;nbsp; &amp;nbsp; &amp;nbsp; &amp;nbsp; &amp;nbsp; &amp;nbsp; &amp;nbsp; &amp;nbsp; &amp;nbsp; &amp;nbsp; &amp;nbsp; &amp;nbsp; &amp;nbsp; &amp;nbsp; &amp;nbsp; &amp;nbsp; &amp;nbsp; &amp;nbsp; &amp;nbsp; &amp;nbsp; &amp;nbsp; &amp;nbsp; &amp;nbsp; &amp;nbsp; &amp;nbsp; &amp;nbsp; &amp;nbsp; &amp;nbsp; &amp;nbsp; &amp;nbsp; &amp;nbsp; &amp;nbsp; &amp;nbsp; &amp;nbsp; &amp;nbsp; &amp;nbsp; &amp;nbsp; &amp;nbsp; &amp;nbsp; &amp;nbsp; &amp;nbsp; &amp;nbsp; &amp;nbsp; &amp;nbsp; &amp;nbsp; &lt;b&gt;An example of use case diagram for Bank ATM sussystem- top level use cases&lt;/b&gt;" style="text;html=1;align=center;verticalAlign=middle;resizable=0;points=[];autosize=1;strokeColor=none;fillColor=none;" vertex="1" parent="1">
          <mxGeometry x="-150" y="590" width="820" height="20" as="geometry" />
        </mxCell>
      </root>
    </mxGraphModel>
  </diagram>
  <diagram id="k9_O_GstEtdLNg8SwPJX" name="Page-2">
    <mxGraphModel dx="1038" dy="571" grid="1" gridSize="10" guides="1" tooltips="1" connect="1" arrows="1" fold="1" page="1" pageScale="1" pageWidth="850" pageHeight="1100" math="0" shadow="0">
      <root>
        <mxCell id="0" />
        <mxCell id="1" parent="0" />
        <mxCell id="jB-B85OuVzfZxwRjTC8J-2" value="&lt;b&gt;Customer Authentication&lt;/b&gt;" style="ellipse;whiteSpace=wrap;html=1;" vertex="1" parent="1">
          <mxGeometry x="550" y="170" width="130" height="70" as="geometry" />
        </mxCell>
        <mxCell id="jB-B85OuVzfZxwRjTC8J-3" value="&lt;b&gt;ATM&lt;/b&gt; &lt;b&gt;Help&lt;/b&gt;" style="ellipse;whiteSpace=wrap;html=1;" vertex="1" parent="1">
          <mxGeometry x="560" y="340" width="130" height="70" as="geometry" />
        </mxCell>
        <mxCell id="jB-B85OuVzfZxwRjTC8J-4" value="&lt;b&gt;ATM&lt;br&gt;Transaction&lt;br&gt;extension points&lt;br&gt;menu:provide help&lt;/b&gt;" style="ellipse;whiteSpace=wrap;html=1;" vertex="1" parent="1">
          <mxGeometry x="360" y="245" width="150" height="90" as="geometry" />
        </mxCell>
        <mxCell id="jB-B85OuVzfZxwRjTC8J-5" value="" style="endArrow=none;html=1;rounded=0;exitX=0;exitY=0.5;exitDx=0;exitDy=0;entryX=1;entryY=0.5;entryDx=0;entryDy=0;" edge="1" parent="1" source="jB-B85OuVzfZxwRjTC8J-4" target="jB-B85OuVzfZxwRjTC8J-4">
          <mxGeometry width="50" height="50" relative="1" as="geometry">
            <mxPoint x="400" y="300" as="sourcePoint" />
            <mxPoint x="450" y="250" as="targetPoint" />
            <Array as="points" />
          </mxGeometry>
        </mxCell>
        <mxCell id="jB-B85OuVzfZxwRjTC8J-6" value="&lt;b&gt;Check&lt;br&gt;Balances&lt;/b&gt;" style="ellipse;whiteSpace=wrap;html=1;" vertex="1" parent="1">
          <mxGeometry x="60" y="100" width="130" height="60" as="geometry" />
        </mxCell>
        <mxCell id="jB-B85OuVzfZxwRjTC8J-7" value="&lt;b&gt;Deposit&lt;/b&gt; &lt;br&gt;&lt;b&gt;Funds&lt;/b&gt;" style="ellipse;whiteSpace=wrap;html=1;" vertex="1" parent="1">
          <mxGeometry x="55" y="210" width="125" height="60" as="geometry" />
        </mxCell>
        <mxCell id="jB-B85OuVzfZxwRjTC8J-8" value="&lt;b&gt;Withdraw&lt;br&gt;Case&lt;/b&gt;" style="ellipse;whiteSpace=wrap;html=1;" vertex="1" parent="1">
          <mxGeometry x="55" y="320" width="135" height="60" as="geometry" />
        </mxCell>
        <mxCell id="jB-B85OuVzfZxwRjTC8J-9" value="&lt;b&gt;Transfer&lt;br&gt;Funds&lt;/b&gt;" style="ellipse;whiteSpace=wrap;html=1;" vertex="1" parent="1">
          <mxGeometry x="60" y="420" width="130" height="60" as="geometry" />
        </mxCell>
        <mxCell id="jB-B85OuVzfZxwRjTC8J-10" value="" style="strokeWidth=2;html=1;shape=mxgraph.flowchart.annotation_2;align=left;labelPosition=right;pointerEvents=1;rotation=-180;" vertex="1" parent="1">
          <mxGeometry x="190" y="130" width="150.17" height="320" as="geometry" />
        </mxCell>
        <mxCell id="jB-B85OuVzfZxwRjTC8J-12" value="" style="endArrow=none;html=1;rounded=0;exitX=1;exitY=0.5;exitDx=0;exitDy=0;entryX=0.505;entryY=0.657;entryDx=0;entryDy=0;entryPerimeter=0;" edge="1" parent="1" source="jB-B85OuVzfZxwRjTC8J-7" target="jB-B85OuVzfZxwRjTC8J-10">
          <mxGeometry width="50" height="50" relative="1" as="geometry">
            <mxPoint x="400" y="270" as="sourcePoint" />
            <mxPoint x="450" y="220" as="targetPoint" />
          </mxGeometry>
        </mxCell>
        <mxCell id="jB-B85OuVzfZxwRjTC8J-14" value="" style="endArrow=none;html=1;rounded=0;exitX=1.021;exitY=0.317;exitDx=0;exitDy=0;exitPerimeter=0;entryX=0.51;entryY=0.314;entryDx=0;entryDy=0;entryPerimeter=0;" edge="1" parent="1" source="jB-B85OuVzfZxwRjTC8J-10" target="jB-B85OuVzfZxwRjTC8J-10">
          <mxGeometry width="50" height="50" relative="1" as="geometry">
            <mxPoint x="210" y="390" as="sourcePoint" />
            <mxPoint x="260" y="340" as="targetPoint" />
          </mxGeometry>
        </mxCell>
        <mxCell id="jB-B85OuVzfZxwRjTC8J-16" value="Extends" style="endArrow=block;endSize=16;endFill=0;html=1;rounded=0;exitX=0.483;exitY=0.502;exitDx=0;exitDy=0;exitPerimeter=0;entryX=0;entryY=0.5;entryDx=0;entryDy=0;" edge="1" parent="1" source="jB-B85OuVzfZxwRjTC8J-10" target="jB-B85OuVzfZxwRjTC8J-4">
          <mxGeometry x="1" y="-752" width="160" relative="1" as="geometry">
            <mxPoint x="340" y="240" as="sourcePoint" />
            <mxPoint x="500" y="240" as="targetPoint" />
            <mxPoint x="56" y="-2" as="offset" />
          </mxGeometry>
        </mxCell>
        <mxCell id="jB-B85OuVzfZxwRjTC8J-17" value="condition:{Button.Help.Help-&amp;gt;isPushed()} &lt;br&gt;extension point:menu" style="shape=note;size=20;whiteSpace=wrap;html=1;" vertex="1" parent="1">
          <mxGeometry x="540" y="265" width="290" height="50" as="geometry" />
        </mxCell>
        <mxCell id="jB-B85OuVzfZxwRjTC8J-18" value="Use" style="endArrow=open;endSize=12;dashed=1;html=1;rounded=0;entryX=0;entryY=0.5;entryDx=0;entryDy=0;exitX=1;exitY=0;exitDx=0;exitDy=0;" edge="1" parent="1" source="jB-B85OuVzfZxwRjTC8J-4" target="jB-B85OuVzfZxwRjTC8J-2">
          <mxGeometry x="-1" y="-882" width="160" relative="1" as="geometry">
            <mxPoint x="340" y="220" as="sourcePoint" />
            <mxPoint x="500" y="220" as="targetPoint" />
            <mxPoint x="-574" y="213" as="offset" />
          </mxGeometry>
        </mxCell>
        <mxCell id="jB-B85OuVzfZxwRjTC8J-19" value="return" style="html=1;verticalAlign=bottom;endArrow=open;dashed=1;endSize=8;rounded=0;exitX=0;exitY=0.5;exitDx=0;exitDy=0;" edge="1" parent="1" source="jB-B85OuVzfZxwRjTC8J-3" target="jB-B85OuVzfZxwRjTC8J-4">
          <mxGeometry x="-1" y="416" relative="1" as="geometry">
            <mxPoint x="460" y="280" as="sourcePoint" />
            <mxPoint x="380" y="280" as="targetPoint" />
            <mxPoint x="204" y="71" as="offset" />
          </mxGeometry>
        </mxCell>
        <mxCell id="jB-B85OuVzfZxwRjTC8J-21" value="" style="endArrow=none;dashed=1;html=1;rounded=0;entryX=0.206;entryY=1.016;entryDx=0;entryDy=0;entryPerimeter=0;" edge="1" parent="1" target="jB-B85OuVzfZxwRjTC8J-17">
          <mxGeometry width="50" height="50" relative="1" as="geometry">
            <mxPoint x="530" y="350" as="sourcePoint" />
            <mxPoint x="450" y="200" as="targetPoint" />
          </mxGeometry>
        </mxCell>
        <mxCell id="jB-B85OuVzfZxwRjTC8J-22" value="&amp;lt;&amp;lt;extend&amp;gt;&amp;gt;" style="text;html=1;align=center;verticalAlign=middle;resizable=0;points=[];autosize=1;strokeColor=none;fillColor=none;" vertex="1" parent="1">
          <mxGeometry x="445" y="350" width="80" height="20" as="geometry" />
        </mxCell>
        <mxCell id="jB-B85OuVzfZxwRjTC8J-23" value="&amp;lt;&amp;lt;include&amp;gt;&amp;gt;" style="text;html=1;align=center;verticalAlign=middle;resizable=0;points=[];autosize=1;strokeColor=none;fillColor=none;" vertex="1" parent="1">
          <mxGeometry x="445" y="210" width="80" height="20" as="geometry" />
        </mxCell>
        <mxCell id="jB-B85OuVzfZxwRjTC8J-24" value="&lt;b&gt;Bank ATM Transactions and Cutomer Authentication Use Cases Example&lt;/b&gt;" style="text;html=1;align=center;verticalAlign=middle;resizable=0;points=[];autosize=1;strokeColor=none;fillColor=none;" vertex="1" parent="1">
          <mxGeometry x="235" y="530" width="430" height="20" as="geometry" />
        </mxCell>
      </root>
    </mxGraphModel>
  </diagram>
  <diagram id="ufL4hRTJjcRVtp-2vnC9" name="Page-3">
    <mxGraphModel dx="1038" dy="513" grid="1" gridSize="10" guides="1" tooltips="1" connect="1" arrows="1" fold="1" page="1" pageScale="1" pageWidth="850" pageHeight="1100" math="0" shadow="0">
      <root>
        <mxCell id="0" />
        <mxCell id="1" parent="0" />
        <mxCell id="_kT_GL8GUBW4rgImtBuJ-1" value="&lt;b&gt;Maintenance&lt;/b&gt;" style="ellipse;whiteSpace=wrap;html=1;" vertex="1" parent="1">
          <mxGeometry x="290" y="290" width="150" height="70" as="geometry" />
        </mxCell>
        <mxCell id="_kT_GL8GUBW4rgImtBuJ-2" value="&lt;b&gt;Replenishing&lt;/b&gt;" style="ellipse;whiteSpace=wrap;html=1;" vertex="1" parent="1">
          <mxGeometry x="540" y="170" width="140" height="70" as="geometry" />
        </mxCell>
        <mxCell id="_kT_GL8GUBW4rgImtBuJ-3" value="&lt;b&gt;Upgrades&lt;/b&gt;" style="ellipse;whiteSpace=wrap;html=1;" vertex="1" parent="1">
          <mxGeometry x="610" y="280" width="140" height="70" as="geometry" />
        </mxCell>
        <mxCell id="_kT_GL8GUBW4rgImtBuJ-4" value="&lt;b&gt;Diagonostics&lt;/b&gt;" style="ellipse;whiteSpace=wrap;html=1;" vertex="1" parent="1">
          <mxGeometry x="560" y="400" width="140" height="70" as="geometry" />
        </mxCell>
        <mxCell id="_kT_GL8GUBW4rgImtBuJ-5" value="&lt;b&gt;Repair&lt;/b&gt;" style="ellipse;whiteSpace=wrap;html=1;" vertex="1" parent="1">
          <mxGeometry x="295" y="440" width="140" height="70" as="geometry" />
        </mxCell>
        <mxCell id="_kT_GL8GUBW4rgImtBuJ-6" value="Use" style="endArrow=open;endSize=12;dashed=1;html=1;rounded=0;entryX=0;entryY=0.5;entryDx=0;entryDy=0;exitX=0.997;exitY=0.414;exitDx=0;exitDy=0;exitPerimeter=0;" edge="1" parent="1" source="_kT_GL8GUBW4rgImtBuJ-1" target="_kT_GL8GUBW4rgImtBuJ-2">
          <mxGeometry x="-1" y="-601" width="160" relative="1" as="geometry">
            <mxPoint x="450" y="260" as="sourcePoint" />
            <mxPoint x="500" y="290" as="targetPoint" />
            <mxPoint x="-440" y="204" as="offset" />
          </mxGeometry>
        </mxCell>
        <mxCell id="_kT_GL8GUBW4rgImtBuJ-7" value="Use" style="endArrow=open;endSize=12;dashed=1;html=1;rounded=0;entryX=0;entryY=0.5;entryDx=0;entryDy=0;exitX=1;exitY=0.429;exitDx=0;exitDy=0;exitPerimeter=0;" edge="1" parent="1" source="_kT_GL8GUBW4rgImtBuJ-1" target="_kT_GL8GUBW4rgImtBuJ-3">
          <mxGeometry x="-0.653" y="-1031" width="160" relative="1" as="geometry">
            <mxPoint x="490" y="350" as="sourcePoint" />
            <mxPoint x="500" y="350" as="targetPoint" />
            <mxPoint as="offset" />
          </mxGeometry>
        </mxCell>
        <mxCell id="_kT_GL8GUBW4rgImtBuJ-9" value="Use" style="endArrow=open;endSize=12;dashed=1;html=1;rounded=0;exitX=1;exitY=0.5;exitDx=0;exitDy=0;" edge="1" parent="1" source="_kT_GL8GUBW4rgImtBuJ-1" target="_kT_GL8GUBW4rgImtBuJ-4">
          <mxGeometry x="1" y="-525" width="160" relative="1" as="geometry">
            <mxPoint x="340" y="350" as="sourcePoint" />
            <mxPoint x="500" y="350" as="targetPoint" />
            <mxPoint x="238" y="82" as="offset" />
          </mxGeometry>
        </mxCell>
        <mxCell id="_kT_GL8GUBW4rgImtBuJ-10" value="Use" style="endArrow=open;endSize=12;dashed=1;html=1;rounded=0;entryX=0.026;entryY=0.66;entryDx=0;entryDy=0;entryPerimeter=0;" edge="1" parent="1" target="_kT_GL8GUBW4rgImtBuJ-4">
          <mxGeometry x="-1" y="-271" width="160" relative="1" as="geometry">
            <mxPoint x="440" y="470" as="sourcePoint" />
            <mxPoint x="500" y="290" as="targetPoint" />
            <mxPoint x="-2" as="offset" />
          </mxGeometry>
        </mxCell>
        <mxCell id="_kT_GL8GUBW4rgImtBuJ-11" value="Actor" style="shape=umlActor;verticalLabelPosition=bottom;verticalAlign=top;html=1;" vertex="1" parent="1">
          <mxGeometry x="140" y="370" width="30" height="60" as="geometry" />
        </mxCell>
        <mxCell id="_kT_GL8GUBW4rgImtBuJ-12" value="&lt;b&gt;ATM Technician&lt;/b&gt;" style="text;html=1;align=center;verticalAlign=middle;resizable=0;points=[];autosize=1;strokeColor=none;fillColor=none;" vertex="1" parent="1">
          <mxGeometry x="95" y="450" width="110" height="20" as="geometry" />
        </mxCell>
        <mxCell id="_kT_GL8GUBW4rgImtBuJ-13" value="" style="endArrow=none;html=1;rounded=0;entryX=0;entryY=0.5;entryDx=0;entryDy=0;" edge="1" parent="1" target="_kT_GL8GUBW4rgImtBuJ-1">
          <mxGeometry width="50" height="50" relative="1" as="geometry">
            <mxPoint x="180" y="400" as="sourcePoint" />
            <mxPoint x="450" y="320" as="targetPoint" />
          </mxGeometry>
        </mxCell>
        <mxCell id="_kT_GL8GUBW4rgImtBuJ-14" value="" style="endArrow=none;html=1;rounded=0;entryX=0;entryY=0.5;entryDx=0;entryDy=0;" edge="1" parent="1" target="_kT_GL8GUBW4rgImtBuJ-5">
          <mxGeometry width="50" height="50" relative="1" as="geometry">
            <mxPoint x="180" y="400" as="sourcePoint" />
            <mxPoint x="450" y="320" as="targetPoint" />
          </mxGeometry>
        </mxCell>
        <mxCell id="_kT_GL8GUBW4rgImtBuJ-15" value="&amp;lt;&amp;lt;include&amp;gt;&amp;gt;" style="text;html=1;align=center;verticalAlign=middle;resizable=0;points=[];autosize=1;strokeColor=none;fillColor=none;" vertex="1" parent="1">
          <mxGeometry x="435" y="220" width="80" height="20" as="geometry" />
        </mxCell>
        <mxCell id="_kT_GL8GUBW4rgImtBuJ-16" value="&amp;lt;&amp;lt;include&amp;gt;&amp;gt;" style="text;html=1;align=center;verticalAlign=middle;resizable=0;points=[];autosize=1;strokeColor=none;fillColor=none;" vertex="1" parent="1">
          <mxGeometry x="510" y="290" width="80" height="20" as="geometry" />
        </mxCell>
        <mxCell id="_kT_GL8GUBW4rgImtBuJ-17" value="&amp;lt;&amp;lt;include&amp;gt;&amp;gt;" style="text;html=1;align=center;verticalAlign=middle;resizable=0;points=[];autosize=1;strokeColor=none;fillColor=none;" vertex="1" parent="1">
          <mxGeometry x="540" y="370" width="80" height="20" as="geometry" />
        </mxCell>
        <mxCell id="_kT_GL8GUBW4rgImtBuJ-18" value="&amp;lt;&amp;lt;include&amp;gt;&amp;gt;" style="text;html=1;align=center;verticalAlign=middle;resizable=0;points=[];autosize=1;strokeColor=none;fillColor=none;" vertex="1" parent="1">
          <mxGeometry x="500" y="465" width="80" height="20" as="geometry" />
        </mxCell>
        <mxCell id="_kT_GL8GUBW4rgImtBuJ-19" value="&lt;b&gt;Bank ATM Maintenance, RAepair, Diagonostic Use Cases Example&lt;/b&gt;" style="text;html=1;align=center;verticalAlign=middle;resizable=0;points=[];autosize=1;strokeColor=none;fillColor=none;" vertex="1" parent="1">
          <mxGeometry x="220" y="560" width="390" height="20" as="geometry" />
        </mxCell>
      </root>
    </mxGraphModel>
  </diagram>
</mxfile>
